<svg xmlns="http://www.w3.org/2000/svg" version="1.1" xmlns:xlink="http://www.w3.org/1999/xlink" width="1000" height="1000"><g clip-path="url(#SvgjsClipPath1292)"><rect width="1000" height="1000" fill="#ffffff"></rect><g transform="matrix(0.9765625,0,0,0.9765625,0,218.75)"><svg xmlns="http://www.w3.org/2000/svg" version="1.1" xmlns:xlink="http://www.w3.org/1999/xlink" width="1024" height="576"><svg xmlns="http://www.w3.org/2000/svg" xmlns:xlink="http://www.w3.org/1999/xlink" width="1024" zoomAndPan="magnify" viewBox="0 0 768 431.999984" height="576" preserveAspectRatio="xMidYMid meet" version="1.0"><defs><clipPath id="8f4a8dbd7a"><path d="M 89.378906 8.042969 L 360.878906 8.042969 L 360.878906 403.292969 L 89.378906 403.292969 Z M 89.378906 8.042969 " clip-rule="nonzero"></path></clipPath><clipPath id="ff853e5ff6"><path d="M 359.257812 8.042969 L 398.609375 8.042969 L 398.609375 82.554688 L 359.257812 82.554688 Z M 359.257812 8.042969 " clip-rule="nonzero"></path></clipPath><clipPath id="62a05dc6ba"><path d="M 400.585938 117.03125 L 596 117.03125 L 596 403.53125 L 400.585938 403.53125 Z M 400.585938 117.03125 " clip-rule="nonzero"></path></clipPath><clipPath id="eaa661a1d8"><path d="M 582.242188 330.578125 L 675.621094 330.578125 L 675.621094 423.957031 L 582.242188 423.957031 Z M 582.242188 330.578125 " clip-rule="nonzero"></path></clipPath><clipPath id="a3fc049cd2"><path d="M 628.933594 330.578125 C 603.144531 330.578125 582.242188 351.480469 582.242188 377.265625 C 582.242188 403.054688 603.144531 423.957031 628.933594 423.957031 C 654.71875 423.957031 675.621094 403.054688 675.621094 377.265625 C 675.621094 351.480469 654.71875 330.578125 628.933594 330.578125 Z M 628.933594 330.578125 " clip-rule="nonzero"></path></clipPath><clipPath id="ec6007b134"><path d="M 614.429688 362.765625 L 643.433594 362.765625 L 643.433594 391.769531 L 614.429688 391.769531 Z M 614.429688 362.765625 " clip-rule="nonzero"></path></clipPath><clipPath id="ddd631925a"><path d="M 628.933594 362.765625 C 620.921875 362.765625 614.429688 369.257812 614.429688 377.265625 C 614.429688 385.277344 620.921875 391.769531 628.933594 391.769531 C 636.941406 391.769531 643.433594 385.277344 643.433594 377.265625 C 643.433594 369.257812 636.941406 362.765625 628.933594 362.765625 Z M 628.933594 362.765625 " clip-rule="nonzero"></path></clipPath><clipPath id="fb6acdbeb1"><path d="M 502.851562 8.042969 L 567.351562 8.042969 L 567.351562 330.542969 L 502.851562 330.542969 Z M 502.851562 8.042969 " clip-rule="nonzero"></path></clipPath><clipPath id="a0537bcba5"><path d="M 397.859375 8.042969 L 463.660156 8.042969 L 463.660156 82.554688 L 397.859375 82.554688 Z M 397.859375 8.042969 " clip-rule="nonzero"></path></clipPath><clipPath id="SvgjsClipPath1292"><rect width="1000" height="1000" x="0" y="0" rx="300" ry="300"></rect></clipPath></defs><g clip-path="url(#8f4a8dbd7a)"><path fill="#8948ff" d="M 287.269531 403.261719 C 178.117188 403.261719 89.625 314.769531 89.625 205.617188 C 89.625 96.464844 178.117188 7.972656 287.269531 7.972656 L 361.257812 7.972656 L 361.257812 82.304688 L 287.269531 82.574219 C 219.316406 82.574219 164.222656 137.667969 164.222656 205.617188 C 164.222656 273.570312 219.316406 328.664062 287.269531 328.664062 L 361.257812 328.664062 L 361.257812 402.921875 L 287.269531 403.261719 " fill-opacity="1" fill-rule="nonzero"></path></g><g clip-path="url(#ff853e5ff6)"><path fill="#8948ff" d="M 359.257812 8.042969 L 398.609375 8.042969 L 398.609375 82.59375 L 359.257812 82.59375 Z M 359.257812 8.042969 " fill-opacity="1" fill-rule="nonzero"></path></g><g clip-path="url(#62a05dc6ba)"><path fill="#8948ff" d="M 452.761719 117.03125 L 407.191406 117.03125 C 403.597656 117.03125 400.679688 119.949219 400.679688 123.542969 L 400.679688 396.960938 C 400.679688 400.554688 403.597656 403.472656 407.191406 403.472656 L 589.472656 403.472656 C 593.066406 403.472656 595.980469 400.554688 595.980469 396.960938 L 595.980469 357.902344 C 595.980469 354.308594 593.066406 351.390625 589.472656 351.390625 L 459.273438 351.390625 L 459.273438 123.542969 C 459.273438 119.949219 456.355469 117.03125 452.761719 117.03125 Z M 452.761719 117.03125 " fill-opacity="1" fill-rule="nonzero"></path></g><g clip-path="url(#eaa661a1d8)"><g clip-path="url(#a3fc049cd2)"><path fill="#8948ff" d="M 582.242188 330.578125 L 675.621094 330.578125 L 675.621094 423.957031 L 582.242188 423.957031 Z M 582.242188 330.578125 " fill-opacity="1" fill-rule="nonzero"></path></g></g><g clip-path="url(#ec6007b134)"><g clip-path="url(#ddd631925a)"><path fill="#ffffff" d="M 614.429688 362.765625 L 643.433594 362.765625 L 643.433594 391.769531 L 614.429688 391.769531 Z M 614.429688 362.765625 " fill-opacity="1" fill-rule="nonzero"></path></g></g><g clip-path="url(#fb6acdbeb1)"><path fill="#8948ff" d="M 560.1875 330.554688 L 510.019531 330.554688 C 506.054688 330.554688 502.851562 327.34375 502.851562 323.386719 L 502.851562 15.222656 C 502.851562 11.265625 506.054688 8.054688 510.019531 8.054688 L 560.1875 8.054688 C 564.148438 8.054688 567.351562 11.265625 567.351562 15.222656 L 567.351562 323.386719 C 567.351562 327.34375 564.148438 330.554688 560.1875 330.554688 Z M 560.1875 330.554688 " fill-opacity="1" fill-rule="nonzero"></path></g><g clip-path="url(#a0537bcba5)"><path fill="#8948ff" d="M 397.859375 8.042969 L 463.660156 8.042969 L 463.660156 82.585938 L 397.859375 82.585938 Z M 397.859375 8.042969 " fill-opacity="1" fill-rule="nonzero"></path></g></svg></svg></g></g></svg>